<svg id="OBJECT" xmlns="http://www.w3.org/2000/svg" viewBox="0 0 514.94 400.91"><defs><style>.cls-2{fill:#5296c6}.cls-3{fill:#315f84}.cls-4{fill:#437ab2}.cls-6{fill:#80d1f9}.cls-7{fill:none}.cls-10{fill:#a34262}.cls-11{fill:#422c4f}.cls-13{fill:#6ca8bf}.cls-14{fill:#468097}.cls-15{fill:#f0bf9c}.cls-16{fill:#de7274}.cls-17{fill:#454f6b}.cls-18{fill:#57637f}.cls-20{fill:#fff}.cls-21{fill:#8c404c}.cls-23{fill:#eba588}.cls-24{fill:#be7e68}.cls-25{fill:#a4625c}.cls-26{fill:#854751}.cls-28{fill:#ebceba}</style></defs><path style="fill:#eba25d" d="m18.49 216.67 21.73-6.89 20.81-1.5 16.64 1.5-2.95 3.5-21.75 8.88H35.89l-14.17-2.13-3.23-3.36z"/><path class="cls-2" d="M213.14 256c-.37-7.72-4.9-15.34-10.5-20.66 2.77 4.37 3.08 10 1.53 14.95a29.43 29.43 0 0 1-8.62 12.71 27.55 27.55 0 0 1-12.77 7 22 22 0 0 1-8.45 0 31.44 31.44 0 0 1 4 10.77 32.1 32.1 0 0 0 5 1.22c7.37 1.16 15.32-.54 21.06-5.3a25.4 25.4 0 0 0 8.75-20.69Z"/><path class="cls-3" d="M168.77 268.14a34.82 34.82 0 0 1-11.44-8.48c2.11 3.44 3.44 9.38 6.4 12.14a39.89 39.89 0 0 0 14.6 8.85 31.44 31.44 0 0 0-4-10.77 25.82 25.82 0 0 1-5.56-1.74Z"/><path class="cls-4" d="M60.71 149.34a82.73 82.73 0 0 1 21.73-14.13 24.77 24.77 0 0 0 6.56-3.64c1.88-1.67 3.19-4.26 2.57-6.71-.72-2.85-3.9-4.56-6.84-4.47s-5.66 1.57-8.1 3.23A50.82 50.82 0 0 0 56.7 151c.94-.46 3.22-.95 4.01-1.66Z"/><path d="M63 143.5a48.19 48.19 0 0 1 15.38-17.4c1.8-1.23 4.17-2.64 6.5-2.71H85c1.74 0 3.41 1 3.72 2.21a4.21 4.21 0 0 1-1.72 3.72 19.21 19.21 0 0 1-5 2.8l-.78.35A85.31 85.31 0 0 0 63 143.5Z" style="fill:#34648c"/><path class="cls-6" d="m116.78 374-1 6.69a6.75 6.75 0 0 0 6.69 7.7h3.19a6.75 6.75 0 0 0 6.74-6.37l.39-6.8a18 18 0 0 0-16.01-1.22Z"/><path class="cls-3" d="M132.43 322.58a71 71 0 0 1-.68-23.67l-33.86-15.47 2.11 14.14c.2 1.36.48 2.7.8 4a194.33 194.33 0 0 1 32.05 23.23Z"/><path class="cls-4" d="M132.88 324.84a194.33 194.33 0 0 0-32-23.23 49.42 49.42 0 0 0 6.76 15.74l14.16 21.56-5 35.11a18 18 0 0 1 16.06 1.22l2.12-37.1a17.46 17.46 0 0 0-.31-4.39Z"/><path class="cls-6" d="M7.6 266.24a15.08 15.08 0 0 0-5.87 3l1.19 8.08a12.13 12.13 0 0 0 11.24 10.35 5.47 5.47 0 0 0 5.78-6.14l-1.8-14.31a15 15 0 0 0-10.54-.98Z"/><path class="cls-4" d="M53.65 276.7 47.51 245l-16.25-9.75-5 8.36 2.13 11.89-9.49-7.8a11.53 11.53 0 0 0-11.33-1.91 11.54 11.54 0 0 0-7.45 12.5l1.61 11a15.08 15.08 0 0 1 5.87-3 15 15 0 0 1 10.54 1l20.77 18a9 9 0 0 0 7.67 2 9 9 0 0 0 7.07-10.59Z"/><path class="cls-3" d="m18.14 267.24-1.46-10.73L31.72 279l-13.58-11.76z"/><path class="cls-6" d="M147.13 372.06a19.45 19.45 0 0 0-7.07 2.4l-2.27 4.77a6.42 6.42 0 0 0 5.8 9.18h3.66a7.77 7.77 0 0 0 7.27-5.05l2.16-5.83a8.28 8.28 0 0 0-2.46-4c-1.91-1.53-4.63-1.8-7.09-1.47Z"/><path class="cls-7" d="M135.78 308.17a37.35 37.35 0 0 1-3.23-7 35.83 35.83 0 0 0 3.23 7ZM132.56 301.23v-.1.09ZM77.07 257.23ZM113 279.14a37.32 37.32 0 0 1 12.66 9.73 35.76 35.76 0 0 0-12.32-9.57L99 272.56ZM76.62 256.81l-9.48-9.54 9.48 9.54z"/><path class="cls-2" d="M171.85 295.27a38.92 38.92 0 0 0 .55-17.57 38.79 38.79 0 0 0-27.74-29.8l-16.12-4.43-33.93-17a53.78 53.78 0 0 1-23.24-22.53l-8.12-15L78 191.2a18.56 18.56 0 0 0 8.93-.8l3.16-1.09a13.55 13.55 0 0 0 8.34-8.21 11.75 11.75 0 0 0 .63-4.44v-.41l-7.25 3.33a15.26 15.26 0 0 1-12-.32l-20.72-9.52 19.71-1.25a34.12 34.12 0 0 0 14-4l3.5-1.88a13.86 13.86 0 0 0 7.23-13.52l-.13-1.39a5.33 5.33 0 0 0-7.3-4.46L79.24 150a9.88 9.88 0 0 1-7.87-.23l-4.34-2a12.63 12.63 0 0 0-11.65.46l-7.11 4.06A41.65 41.65 0 0 0 32.1 169l-2.34 4.45a85.42 85.42 0 0 0-9.66 45.75l.69 10.06a64.2 64.2 0 0 0 12.31 33.51 16.83 16.83 0 0 1-.22-1.86 16.26 16.26 0 0 1 13.43-17.06l6.51-1.13a16.22 16.22 0 0 1 14.32 4.55l9.48 9.53.45.43q2.18 2.16 4.5 4.12a79.6 79.6 0 0 0 14 9.49c1.12.6 2.25 1.18 3.4 1.72l14.35 6.74a35.76 35.76 0 0 1 12.32 9.57 37.3 37.3 0 0 1 6.86 12.23v.07a38.26 38.26 0 0 0 2.87 6.4l7.2 12.12-6.84-11.52a35.83 35.83 0 0 1-3.22-6.94l1.19 3.53 21.92 36.9-15.61 32.8a19.45 19.45 0 0 1 7.07-2.4c2.46-.33 5.18-.11 7.09 1.48a8.28 8.28 0 0 1 2.46 4l11-29.52a22.89 22.89 0 0 0 1-12.48l-2.36-11.8a19 19 0 0 1 .27-8.58Z"/><path d="M132.55 301.19v-.09a38.93 38.93 0 0 0-6.86-12.23 37.32 37.32 0 0 0-12.69-9.73l-14-6.58c-1.59-.75-3.15-1.57-4.68-2.42a78 78 0 0 1-13.42-9.38 74.925 74.925 0 0 1-3.82-3.53l-.45-.43-9.48-9.53a16.22 16.22 0 0 0-14.32-4.55l-6.51 1.13a16.26 16.26 0 0 0-13.43 17.06l.22 1.86a62.46 62.46 0 0 0 5.73 6.78l5.36 5.51A33.1 33.1 0 0 0 69.87 285l9.29-.55a48.73 48.73 0 0 1 25.09 5.25l29.5 15.05-1.19-3.53Z" style="fill:#56a7d8"/><path class="cls-6" d="M48.51 269.91a15 15 0 0 0-5.87 3l1.18 8.09a12.15 12.15 0 0 0 11.25 10.36 5.48 5.48 0 0 0 5.77-6.15L59 270.91a15.07 15.07 0 0 0-10.49-1Z"/><path class="cls-2" d="m94.56 280.37-6.14-31.71-16.25-9.75-5 8.36 2.14 11.89-9.5-7.8a11.54 11.54 0 0 0-11.32-1.91A11.56 11.56 0 0 0 41 262l1.61 11a15.31 15.31 0 0 1 16.4-2l20.78 18a9 9 0 0 0 7.67 2 9 9 0 0 0 7.1-10.63Z"/><path class="cls-3" d="m69.28 259.16 17.31 14.25-19.45-26.14 2.14 11.89zM59.04 270.91l-1.45-10.72 15.04 22.48-13.59-11.76z"/><path d="m59.09 169.74 19.71-1.25 20.26 7.76-7.25 3.33a15.26 15.26 0 0 1-12-.32Z" style="fill:#843252"/><path class="cls-10" d="M68.58 169.24a13.65 13.65 0 0 1-1.42 13.08c-1.85 2.59-4.55 4.43-6.79 6.69s-4.13 5.31-3.61 8.45 3.57 5.64 6.8 6.12a13.71 13.71 0 0 0 9.25-2.48 21.72 21.72 0 0 0 9.46-14.8A23.92 23.92 0 0 0 77 168.6Z"/><path class="cls-11" d="M98.77 144.73a22.62 22.62 0 0 0-7.21 2.86 1.74 1.74 0 0 0 .43 3.13 20 20 0 0 0 5.24.92 2.5 2.5 0 0 0 2.27-1.28 14.7 14.7 0 0 0 1.35-3.56 1.74 1.74 0 0 0-2.08-2.07ZM65.48 155.57a2.35 2.35 0 1 1-2.34-2.35 2.34 2.34 0 0 1 2.34 2.35Z"/><path class="cls-2" d="M38.12 166.06a34.41 34.41 0 0 1 9.14-37.76 14.47 14.47 0 0 1 5.46-3.38 6.85 6.85 0 0 1 6.17.92c2.82 2.24 2.62 6.79.73 9.86s-5 5.15-7.69 7.55a37.94 37.94 0 0 0-11.63 19.48c-.3 1.2-1.46 2.33-2.18 3.33Z"/><path d="M77.67 209.78c-18 10.89-39.34 13.79-59.18 6.89v5.16c32.6 11.7 57.69-5.67 60.58-8.42Z" style="fill:#f0bf6c"/><path class="cls-13" d="m227.89 82.89-29.57 27.77 21.09 25.5 25.41-31.5-16.93-21.77z"/><path class="cls-14" d="M229.89 85.47c-2.64 6.11-2.94 13.11-1.85 19.72a77.41 77.41 0 0 0 4.31 14.93l12.47-15.46Z"/><path class="cls-15" d="m198.32 110.66-10.5 10.75-25.5-51 .43-.5A19 19 0 0 0 167.33 56l-.25-3.27a4.07 4.07 0 0 0-3.61-3.73l-2-.23v-1.92a3.24 3.24 0 0 0-2.61-3.18l-4.45-.87a4.76 4.76 0 0 0-3.74.86l-12.9 9.66a6.22 6.22 0 0 0-2.28 6.68l.17.6a24.62 24.62 0 0 0 11.67 14.75l1.57.87 22.86 64.33a12.71 12.71 0 0 0 19.65 5.88l22.45-17Z"/><path class="cls-11" d="m198.32 110.66 15.54 18.79-8.87 6.71-8.57-23.56 1.9-1.94z"/><path class="cls-16" d="M188 121.25a.24.24 0 0 0-.35 0l-9.42 7.92a.25.25 0 0 0 0 .35.25.25 0 0 0 .19.09.23.23 0 0 0 .16-.06l9.42-7.95a.25.25 0 0 0 0-.35ZM162.55 56.43l-8.79 4a4.49 4.49 0 0 1-5.88-2.11L160 50.08a.25.25 0 0 0 .06-.35.24.24 0 0 0-.34-.06l-3.27 2.23v-.33a4.53 4.53 0 0 0-3.68-4l-2.1-.4a.25.25 0 1 0-.1.5l2.1.4a4 4 0 0 1 3.28 3.56l.07.6-3.79 2.58a4.48 4.48 0 0 0-3.79-3.65l-2.62-.36a.25.25 0 0 0-.28.21.24.24 0 0 0 .21.28l2.62.37a4 4 0 0 1 3.41 3.46l-3.57 2.43a3.4 3.4 0 0 0-3.24-2.77l-3.39-.08a.25.25 0 0 0-.25.24.25.25 0 0 0 .24.26l3.39.08a2.91 2.91 0 0 1 2.8 2.58l-.45.3.08.19a4.79 4.79 0 0 0 .86 1.31l.33 2.38a1.81 1.81 0 0 1-1.94 2l-5.15-.4a2.78 2.78 0 0 1 .77-1.84 2.81 2.81 0 0 1 2-.88h.13l.32 1.9a.25.25 0 0 0 .24.21.25.25 0 0 0 .21-.29l-.91-5.37a.25.25 0 0 0-.29-.21.26.26 0 0 0-.2.29l.28 1.65-5-.25a.23.23 0 0 0-.26.24.25.25 0 0 0 .24.26l5.06.26.14.82a3.31 3.31 0 0 0-3.27 3.46v.22l5.6.44h.18a2.31 2.31 0 0 0 1.69-.73s.05-.08.09-.12l4.18-2.43.05-.06a4.94 4.94 0 0 0 1.23-.36l3.65-1.66a17.58 17.58 0 0 0-3.9 11.81l.1 2.24a.25.25 0 0 0 .25.24.25.25 0 0 0 .24-.26l-.1-2.25a17.08 17.08 0 0 1 4.45-12.23l4.09-1.86a.25.25 0 0 0-.21-.46ZM149 62l-.24-1.75a4.63 4.63 0 0 0 2.9 1.11L149 62.91a2.18 2.18 0 0 0 0-.91Z"/><path class="cls-17" d="m268.24 219.24 25.37 51A31.3 31.3 0 0 0 336.2 284l73-38.43-17.34-39-61.33 37-13-48.67Z"/><path class="cls-18" d="m400 225-69.16 37.63a11.67 11.67 0 0 1-16.32-5.68l-11.84-27.76q-.74.8-1.5 1.56l11.5 27a13.69 13.69 0 0 0 19.12 6.65l69.2-37.65Z"/><path class="cls-11" d="m268.24 219.24 12.05 24.23a52.95 52.95 0 0 0 20.89-12.73l-9.78-22.92ZM302.68 229.18a54 54 0 0 0 8.84-12.57c3.12-6.2 5-12.92 6.58-19.7l-.53-2-25.26 12.46.91-.39Z"/><path class="cls-17" d="m293.22 207-.91.39-.91.45 9.78 22.92q.76-.77 1.5-1.56Z"/><path class="cls-15" d="m430.94 224.28 6.56-.76-8-2.68a3.6 3.6 0 0 1-1.57-1l-10.6-11.75-2.68 3.73-17.24 7.18 9.22 20.72 18.22-8.59a9 9 0 0 1 5.37-.74l-1.08-3.27a2.16 2.16 0 0 1 1.8-2.84Z"/><path class="cls-11" d="m417.3 208.07 10.6 11.75a3.6 3.6 0 0 0 1.57 1l8 2.68-6.56.76a2.16 2.16 0 0 0-1.8 2.82l1.08 3.27 1.43.24a113.12 113.12 0 0 1 29.72 9.31 14.06 14.06 0 0 0 10.26.68l-45.1-45.32Z"/><path d="M471.63 240.6a14 14 0 0 0 5.47-3.26l-46.91-47.15-3.66 5.09Z" style="fill:#e4e4e0"/><path class="cls-20" d="m437.5 223.52-6.56.76-.57-3.14 7.13 2.38z"/><path class="cls-11" d="m397.41 218.98 15.1 17.95-5.88 2.77-9.22-20.72z"/><path class="cls-17" d="m255.48 178.67-64.37-4.45a35.31 35.31 0 0 0-34.72 19.94l-35.17 73.42 39 18.33 27.33-75.67 80.94 16.52A44 44 0 0 0 322 190.45l3.38-22.45Z"/><path class="cls-15" d="m122.82 292.45-5.77 3.21 8.45-.6a3.8 3.8 0 0 1 1.85.35l14.27 6.8 1.06-4.46 8-16.3-20.46-9.62-5.22 11.61a5.45 5.45 0 0 1-3.75 3.08h-.13l2.25 2.61a2.15 2.15 0 0 1-.55 3.32Z"/><path class="cls-11" d="m141.62 302.21-14.27-6.8a3.8 3.8 0 0 0-1.85-.35l-8.45.6 5.77-3.21a2.15 2.15 0 0 0 .59-3.29l-2.25-2.61-1.41.32a113.19 113.19 0 0 1-31 2.77 14 14 0 0 0-9.75 3.29l59 24.63Z"/><path class="cls-20" d="M79 292.93a14.05 14.05 0 0 0-3.81 5.1l61.37 25.63 1.44-6.1ZM117.05 295.66l5.77-3.21 1.73 2.68-7.5.53z"/><path class="cls-11" d="m130.27 271.83 20.46 9.62-3.09 6.25-18.84-12.59 1.47-3.28z"/><path class="cls-18" d="M290.41 197.22a25.3 25.3 0 0 1-19.76 4.1l-68.21-11.89a28.1 28.1 0 0 0-31.63 16.92l-28.92 71 1.85.76 28.93-71A26.09 26.09 0 0 1 202 191.39l68.21 11.89A27.54 27.54 0 0 0 302.47 183l-2.09.07a25.31 25.31 0 0 1-9.97 14.15ZM302.22 171.55l.11-.02-.11.02z"/><path class="cls-11" d="m325.38 168-23.05 3.51 2-.3-1.33 9.13c-.13.89-.31 1.78-.52 2.65l20.76-.72ZM302.22 171.55l-39.86 6.07 6.59 3.31a26.24 26.24 0 0 0 12.7 2.78l18.73-.65a25.27 25.27 0 0 0 .63-3Z"/><path class="cls-17" d="m304.3 171.23-2 .3h-.11L301 180a25.27 25.27 0 0 1-.63 3l2.09-.07c.21-.87.39-1.76.52-2.65Z"/><path class="cls-13" d="m234.14 74.73-4.51 5.39a12.52 12.52 0 0 0-1.78 13.2L229 95.9a34.17 34.17 0 0 0 7.52 10.57l6.29 6a19.84 19.84 0 0 1 5.35 8.81l7 24.1a24.91 24.91 0 0 1-.18 14.51l-2.72 8.54a9.37 9.37 0 0 0 3.18 10.24l1.29 1a22.38 22.38 0 0 0 20.52 3.65l50.9-16.21a14 14 0 0 0 8.08-6.66 14.06 14.06 0 0 0 .54-12.36l-8.12-18.59a153.49 153.49 0 0 0-20.75-34.44l-9.74-12.18a47.23 47.23 0 0 0-30.65-17.33A42 42 0 0 0 241 70.8Z"/><path class="cls-14" d="m308.65 96-.75-1-9.74-12.18a48.28 48.28 0 0 0-3.57-4L266 90.19c9.31 5.27 31 5.91 42.65 5.81Z"/><path class="cls-13" d="m266.3 62.87 39.1-10 2.47 3.74a36.6 36.6 0 0 1 6 20.11v8.71l-42.4 5.14a14.14 14.14 0 0 1-14.69-8.43 14.14 14.14 0 0 1 9.52-19.27Z"/><path class="cls-15" d="m313.9 79.41 24.1-2.5 10.75 52.83-10.89 7.55a5.14 5.14 0 0 0-2.18 4.82l.73 6.25a5.3 5.3 0 0 0 3.51 4.4l10.41 3.66a6.33 6.33 0 0 0 6.38-1.32l4.22-3.87a3.37 3.37 0 0 0-.35-5.24 18.93 18.93 0 0 0 1.23-16.42l-.06-.16-2.35-63.78a14.09 14.09 0 0 0-15.85-13.47l-35.67 4.49a36.6 36.6 0 0 1 6 20.11Z"/><path class="cls-16" d="M340.76 151.93a.25.25 0 0 1-.24-.21l-1.3-7.93a.25.25 0 0 1 .21-.29.24.24 0 0 1 .28.21l1.3 7.93a.25.25 0 0 1-.21.29ZM345.4 153.79a.24.24 0 0 1-.24-.21l-1.3-7.93a.25.25 0 0 1 .21-.29.24.24 0 0 1 .28.21l1.3 7.93a.25.25 0 0 1-.21.29ZM349.89 154.43a.25.25 0 0 1-.24-.21l-1.3-7.94a.25.25 0 0 1 .21-.28.23.23 0 0 1 .28.2l1.3 7.94a.25.25 0 0 1-.21.28ZM355.9 149.8l-2 .75-.47-3.51a.25.25 0 0 0-.28-.21.26.26 0 0 0-.22.28l.67 5a.25.25 0 0 0 .25.22.25.25 0 0 0 .22-.28l-.14-1 2.16-.79a.25.25 0 0 0-.17-.47ZM338 77.16a.24.24 0 0 1-.25-.22.25.25 0 0 1 .22-.28l13.75-1.5a.24.24 0 0 1 .27.22.25.25 0 0 1-.22.28L338 77.16Z"/><path class="cls-11" d="m310.63 56.31-2.76.34a36.6 36.6 0 0 1 6 20.11v2.65l7.85-.81a31.36 31.36 0 0 0-11.09-22.29Z"/><path class="cls-14" d="M305.43 85.21a.24.24 0 0 1-.2-.29A36.38 36.38 0 0 0 300 58.39a.25.25 0 0 1 .42-.28A36.93 36.93 0 0 1 305.68 85a.25.25 0 0 1-.25.21ZM306.36 123.15c-3.94.06-8.41 0-13.12-.31a108.6 108.6 0 0 1-14.51-2 109.6 109.6 0 0 1-14.09-4c-4.44-1.59-8.52-3.39-12.11-5.05a49.25 49.25 0 0 0 11 7.63 58.08 58.08 0 0 0 29.7 6.31 48.87 48.87 0 0 0 13.13-2.58ZM317 130.62a47.41 47.41 0 0 1-8.46 3.8 38 38 0 0 1-20.31 1.07 47.28 47.28 0 0 1-8.82-2.89 25.26 25.26 0 0 0 8.27 4.81 28 28 0 0 0 21.61-1.14 25 25 0 0 0 7.71-5.65ZM305.46 147.21a10.79 10.79 0 0 0 4.61-1.36 14 14 0 0 0 6.7-8.48 10.77 10.77 0 0 0 .26-4.8 63.09 63.09 0 0 1-5.12 7.85 63 63 0 0 1-6.45 6.79ZM315.18 152.15a84 84 0 0 1-12 4.57 70.41 70.41 0 0 1-28.28 2.42 84 84 0 0 1-12.57-2.47 39.21 39.21 0 0 0 12.08 5.19 46.51 46.51 0 0 0 29.71-2.55 39.17 39.17 0 0 0 11.06-7.16ZM251.69 81.55a18.31 18.31 0 0 1-4.25 4 15.49 15.49 0 0 1-12.26 2.32 18.15 18.15 0 0 1-5.41-2.14 12.28 12.28 0 0 0 5 3.37 13.69 13.69 0 0 0 7.05.56 13.55 13.55 0 0 0 6.34-3.1 12.26 12.26 0 0 0 3.53-5.01Z"/><path class="cls-15" d="m224.59 72.89 12 12a19.65 19.65 0 0 0 16.74-12.71 54.94 54.94 0 0 1-13.86-16.28c-3.16 6.49-8.69 13.24-14.88 16.99Z"/><path class="cls-11" d="M237.82 68.61a19.17 19.17 0 0 0 .62-10.74c-3.26 5.86-8.29 11.65-13.85 15l5.41 5.39a19.28 19.28 0 0 0 7.82-9.65Z"/><path class="cls-21" d="M176.9 29.18c.41-7.06 4.36-13.62 9.76-18.19s12.14-7.31 19-9a73 73 0 0 1 35.43.33 21.71 21.71 0 0 1 6.82 2.79 9 9 0 0 1 4 6c.52 3.77-2.09 7.48-1.47 11.23.88 5.32 7.34 7.56 10.37 12 2.43 3.57 2.4 8.44.62 12.37a22 22 0 0 1-8.69 9.29c-9.64 6-21.82 6.88-32.93 4.52-10.94-2.32-19.79-8.38-30.08-12.2-8.1-3.01-13.35-10.13-12.83-19.14Z"/><path d="M185.38 19c5.59-7.15 14.07-11.63 22.88-13.8s18-2.23 27.07-1.84a35.59 35.59 0 0 1 8.54 1.11 13.08 13.08 0 0 1 7.07 4.66 8.47 8.47 0 0 1 1 1.8 9.11 9.11 0 0 0-4-5.76 21.71 21.71 0 0 0-6.82-2.79A73 73 0 0 0 205.68 2c-6.88 1.66-13.62 4.4-19 9s-9.35 11.13-9.76 18.19a18.72 18.72 0 0 0 2.82 11.23C178.35 33 180.69 25 185.38 19Z" style="fill:#a55060"/><path class="cls-15" d="M238.89 42.39a7.31 7.31 0 0 1-7.56-3.85l-2.71-5.19a4.38 4.38 0 0 0-3-2.27 4.36 4.36 0 0 1-3.07-2.35l-4-8a4.33 4.33 0 0 0-6.24-1.73l-12 7.94a35.93 35.93 0 0 1-7.84 3.92l-8.9 3.16A25.77 25.77 0 0 0 187 53.41l6.81 10.77a25.88 25.88 0 0 0 46.42-22Z"/><circle class="cls-15" cx="242.62" cy="40.11" r="7.62" transform="rotate(-80.8 242.63 40.103)"/><path class="cls-23" d="M246.69 40.11a4.07 4.07 0 1 1-4.07-4.11 4.07 4.07 0 0 1 4.07 4.11Z"/><path class="cls-21" d="M192.93 41.88a9.55 9.55 0 0 0-4 7.5l12.38-8.84a9.56 9.56 0 0 0-8.38 1.34ZM214.58 31.44a9.53 9.53 0 0 1 8.42 1.45l-14.57 4.35a9.53 9.53 0 0 1 6.15-5.8Z"/><path class="cls-11" d="M203.38 52.35a1.78 1.78 0 1 1-1.78-1.78 1.78 1.78 0 0 1 1.78 1.78ZM221.19 44.18a1.78 1.78 0 1 1-1.78-1.78 1.77 1.77 0 0 1 1.78 1.78Z"/><path class="cls-23" d="M215.54 55.46a21.55 21.55 0 0 0-3.89 1.08 7.18 7.18 0 0 0-3.18 2.46c1.42.29 2.89.9 4.24.4a5 5 0 0 0 2.83-3.94Z"/><path class="cls-20" d="M227.76 54a30.3 30.3 0 0 1-21.36 12.07c2.76 1.2 5.67 2.73 8.68 2.85a13.31 13.31 0 0 0 8.52-2.39c3.57-2.68 4.69-8.14 4.16-12.53Z"/><path class="cls-14" d="M222.6 126.25a.24.24 0 0 1-.19-.08l-17.6-18.77a.24.24 0 0 1 0-.35.25.25 0 0 1 .35 0l17.61 18.77a.25.25 0 0 1 0 .35.23.23 0 0 1-.17.08Z"/><path class="cls-24" d="M202.16 304.89a13.94 13.94 0 0 0-4.56 11.76l.63 6.15 16.68-8.86-1.17-2.68a10.81 10.81 0 0 0-11.58-6.37Z"/><path class="cls-25" d="m274.47 292.41-25.61 22.66-21.68-14.36a15.86 15.86 0 0 0-15.81-1l-6.12 3a14.18 14.18 0 0 0-3.09 2.11 10.81 10.81 0 0 1 11.58 6.37l1.17 2.68 3.58-1.91 22.95 20.23a13 13 0 0 0 15.69 1.11l32.54-21.3Z"/><path class="cls-26" d="M274.47 292.41 263.63 302l-3.82 11.69a14 14 0 0 1-10.28 9.31l-14.83 3.3 6.74 5.94a13 13 0 0 0 15.69 1.11L289.67 312Z"/><path class="cls-25" d="m437.32 344.94-13-6.68-23.52-31.19-32.56 18.61 15.13 18.93A44.35 44.35 0 0 0 413.15 361l13.72 1.52 12.67 23.1-.26.29a31.21 31.21 0 0 1 22.61 15l-16.11-46.22a17.44 17.44 0 0 0-8.46-9.75Z"/><path class="cls-24" d="m439.28 385.91-1.12 1.28a21.69 21.69 0 0 0-5.33 13.72h29.06a31.21 31.21 0 0 0-22.61-15Z"/><path class="cls-26" d="m422.47 345.62 10.15-3.1-8.26-4.26-23.52-31.19-32.56 18.61 24 15.64a36.11 36.11 0 0 0 30.19 4.3Z"/><path class="cls-24" d="M406.35 284.19a29.81 29.81 0 0 0 25.9-50.12c9.71 3.43 18.22 11.86 19.48 22.09.72-1.78 1.67-3.47 2.39-5.25a28.2 28.2 0 0 1-4 27.25c1.24-.27 3.12-.16 4.37-.43-3.77 7.79-11.89 12.64-20.41 14.12s-17.26.18-25.78-1.33a18.61 18.61 0 0 0-1.95-6.33Z"/><path class="cls-26" d="M406.35 284.19a18.61 18.61 0 0 1 1.91 6.33c8.52 1.51 17.26 2.81 25.78 1.33.26 0 .51-.1.76-.15a109.31 109.31 0 0 0-14.53-8.93 29.4 29.4 0 0 1-13.92 1.42Z"/><path d="M285.16 272.19a45.06 45.06 0 0 0 17.54-16c-13.49-.12-37.56 16.51-40.9 20.91a45.65 45.65 0 0 0 23.36-4.91Z" style="fill:#56438c"/><path class="cls-25" d="M267.45 228.33c3.51-4 7.06-8 11.43-11s9.68-4.95 14.93-4.29 10.29 4.36 11.51 9.52a128.69 128.69 0 0 0-32.51 8.94c-1.56-.73-3.81-2.42-5.36-3.17Z"/><path class="cls-10" d="M236.71 261.16c-2.55 4.83-2.89 10.59-2 16 .43 2.67 1.19 5.42 3 7.41s5 3 7.34 1.68 3.1-4.16 3-6.75-.95-5.1-1.13-7.69a15.3 15.3 0 0 1 2.71-9.77c1.48-2.11 3.66-4.21 2.7-7-.68-2-2.07-2.51-4-2.28-4.99.56-9.33 4.07-11.62 8.4Z"/><path class="cls-28" d="M333.11 319.79a24.52 24.52 0 0 1-19-5.33l-4.47-3.66-29.22 7.2a36.75 36.75 0 0 0 10.71 9.47l12 7a42.85 42.85 0 0 0 38.01 2.53l36-15-10.31-6.93Z"/><path class="cls-24" d="m493.53 351.09 5.24-4.41-21.47-26a17.63 17.63 0 0 0-13.58-6.4h-18.36L428.59 295a52.64 52.64 0 0 0-44.33-17.85l-33 2.91-36.68-10.4a21.7 21.7 0 0 1-13.45-11.13L293.32 243a32.28 32.28 0 0 0-17.89-15.88L261 221.93a9.34 9.34 0 0 0-8.31 1l-5.62 3.7a9.39 9.39 0 0 1-6.36 1.46l-24.38-3.18a1.65 1.65 0 0 0-1.84 1.91l2 11.92a12.83 12.83 0 0 0 9.51 10.31l20.34 5.13a3.33 3.33 0 0 1-.38 6.53l-22.41 3 1.06 2.36a9.87 9.87 0 0 0 10.31 5.72l20-2.69a11.87 11.87 0 0 1 13.18 9.23l5.52 25.18a36.68 36.68 0 0 0 6.8 14.49l29.24-7.22 4.47 3.66a24.52 24.52 0 0 0 19 5.33l33.69-4.72 10.29 6.95L400 334.22a38.53 38.53 0 0 0 26.46 3.64l31.95-7.06 28.44 29.93a24.67 24.67 0 0 0 3.52 3 11.15 11.15 0 0 1 3.16-12.64Z"/><path class="cls-28" d="m514.94 366.25-16.17-19.57-5.24 4.41a11.15 11.15 0 0 0-3.15 12.69 24.72 24.72 0 0 0 24.56 2.47Z"/><path class="cls-11" d="M216.8 225a12 12 0 0 1 4.5 1.55l5.79 3.42a1.81 1.81 0 0 1-.69 3.35l-4.75.6a5.07 5.07 0 0 1-5.41-3.33l-1.21-3.4a1.65 1.65 0 0 1 1.77-2.19ZM256.43 233.67c-1 1.46-2.48 2.19-3.34 1.61s-.74-2.23.24-3.7 2.48-2.19 3.34-1.61.75 2.23-.24 3.7Z"/><path class="cls-25" d="M303.91 262.78c-3.31 13.23-17.39 25-33.54 25.62l-1.49-7.19 20.79-6.66Z"/><path d="M302.7 256.16a45.06 45.06 0 0 1-17.54 16 45.65 45.65 0 0 1-23.36 4.88l.25 3c.12 1.2.25 2.4.29 3.38a44.52 44.52 0 0 0 25.23-4.88 43.81 43.81 0 0 0 17.75-18.36c-.8-.94-1.82-3.03-2.62-4.02Z" style="fill:#6c6fc3"/><path class="cls-28" d="M229.58 353a10.54 10.54 0 0 0-12.34 1.38 15.8 15.8 0 0 0 6.21 17.05l3.31 2.3 6.54-18.61Z"/><path class="cls-24" d="M304.46 295.92a9.93 9.93 0 0 0-10.17-6.63h-.14a17.51 17.51 0 0 0-13.4 8.14l-17.21 27.49-27.83 6.89a18.08 18.08 0 0 0-11.54 8.89l-5.55 10.18a14.94 14.94 0 0 0-1.38 3.48 10.54 10.54 0 0 1 12.34-1.36l3.72 2.12 2-5.65 31.61-5.89a26 26 0 0 0 12.42-6l30.34-26.73ZM271.31 241.22a65.52 65.52 0 0 1 28.42-.76 59.71 59.71 0 0 0 7.25 1.25 12.41 12.41 0 0 0 7.13-1.37 9.84 9.84 0 0 0 4.5-9.74 11.8 11.8 0 0 0-6.63-8.69c-3.65-1.73-7.89-1.67-11.9-1.19a64 64 0 0 0-32.9 14.12 13.75 13.75 0 0 1 4.13 6.38Z"/><path class="cls-26" d="M308.21 236.42h-.86a36.82 36.82 0 0 1-4.8-.79l-1.8-.37a70.33 70.33 0 0 0-13.52-1.31 71.91 71.91 0 0 0-10.89.84 59 59 0 0 1 24.38-8.79 30.09 30.09 0 0 1 3.76-.26 12.05 12.05 0 0 1 5.21 1 6.48 6.48 0 0 1 3.64 4.64 4.55 4.55 0 0 1-1.9 4.37 6.5 6.5 0 0 1-3.22.67Z"/></svg>